<svg width="120.000000" height="120.000008" viewBox="0 0 120 120" fill="none" xmlns="http://www.w3.org/2000/svg" xmlns:xlink="http://www.w3.org/1999/xlink">
	<desc>
			Created with Pixso.
	</desc>
	<defs/>
	<rect y="0.000008" rx="60.000000" width="120.000000" height="120.000000" fill="#FFFFFF" fill-opacity="1.000000"/>
	<circle cx="58.498535" cy="54.498489" r="27.498482" fill="#A269FF" fill-opacity="0.220000"/>
	<circle cx="58.000000" cy="54.000008" r="21.000000" fill="#A269FF" fill-opacity="1.000000"/>
	<circle cx="58.030273" cy="54.030373" r="16.030304" fill="#FFFFFF" fill-opacity="1.000000"/>
	<rect x="51.024170" y="87.201302" rx="2.749848" width="5.499696" height="12.832623" fill="#3D0697" fill-opacity="1.000000"/>
	<path d="M30.416 30.4606C25.2402 36.5406 22.3701 43.9184 21.8057 51.4378C21.1086 60.5315 23.8096 69.1092 28.8323 75.9272C34.23 83.2787 41.8689 88.0243 50.1218 89.9219C59.0071 91.9798 67.8936 90.6007 75.3899 86.6613C82.5254 82.9259 87.915 77.1569 91.2305 70.4396C91.9568 68.9679 91.2004 67.2339 89.6748 66.6286C88.1499 66.0236 86.436 66.7777 85.688 68.2379C82.7195 74.0323 78.0903 78.5392 72.6279 81.4013C65.8643 84.9588 58.3684 85.731 51.4551 84.1324C44.0066 82.4225 37.8184 78.123 33.6167 72.405C29.0815 66.2538 27.1902 58.9597 27.73 51.8845C28.22 45.3261 30.7463 39.4016 34.6375 34.6782C35.6807 33.4117 35.6929 31.5391 34.5327 30.3789C33.3721 29.2183 31.48 29.2108 30.416 30.4606Z" fill="#5E02F4" fill-opacity="1.000000" fill-rule="evenodd"/>
	<rect x="40.079834" y="102.326241" rx="2.553848" width="5.107696" height="27.581554" transform="rotate(-90 40.079834 102.326241)" fill="#5E02F4" fill-opacity="1.000000"/>
	<rect x="71.193848" y="27.430061" rx="2.749848" width="5.499696" height="9.891603" transform="rotate(179.974 71.193848 27.430061)" fill="#A269FF" fill-opacity="1.000000"/>
	<rect x="85.959229" y="37.489632" rx="2.749848" width="5.499696" height="9.891603" transform="rotate(-133.275 85.959229 37.489632)" fill="#A269FF" fill-opacity="1.000000"/>
	<rect x="87.688477" y="54.137947" rx="2.749848" width="5.499696" height="9.891603" transform="rotate(-81.1629 87.688477 54.137947)" fill="#A269FF" fill-opacity="1.000000"/>
</svg>
