<svg width="100.000000" height="100.000000" viewBox="0 0 100 100" fill="none" xmlns="http://www.w3.org/2000/svg" xmlns:xlink="http://www.w3.org/1999/xlink">
	<desc>
			Created with Pixso.
	</desc>
	<defs/>
	<ellipse id="Oval 1" cx="50.000000" cy="50.000000" rx="48.499996" ry="48.500000" stroke="#B8B8B8" stroke-opacity="1.000000" stroke-width="3.000000" stroke-dasharray="17 6"/>
	<path id="Union" d="M43.2766 27C38.1165 27 33.9331 31.1787 33.9331 36.3333C33.9331 41.488 38.1165 45.6667 43.2766 45.6667C48.4368 45.6667 52.6201 41.488 52.6201 36.3333C52.6201 31.1787 48.4368 27 43.2766 27ZM33.0696 51.6003L32.8538 51.6852C28.8411 53.2643 25.9199 56.7926 25.1174 61.0294C24.78 62.8103 25.1765 64.652 26.2168 66.1364C27.4746 67.9313 29.5286 69 31.7202 69L54.7466 69C57.7026 69 60.3689 67.2232 61.5068 64.4949C61.9768 63.3681 62.1577 62.1415 62.0332 60.9269C61.5288 56.0161 57.8833 52.007 53.0422 51.0399L52.1011 50.8519L43.2766 50.3333L37.0115 50.7245C35.6597 50.8089 34.3298 51.1044 33.0696 51.6003Z" clip-rule="evenodd" fill="#B8B8B8" fill-opacity="1.000000" fill-rule="evenodd"/>
	<path id="Union" d="M68.3147 46.6854L68.3147 41.2014C68.3147 40.7452 67.9563 40.3868 67.5002 40.3868C67.0439 40.3868 66.6855 40.7452 66.6855 41.2014L66.6855 46.6854L61.2014 46.6854C60.7451 46.6854 60.3867 47.0438 60.3867 47.5C60.3867 47.9562 60.7451 48.3146 61.2014 48.3146L66.6855 48.3146L66.6855 53.7986C66.6855 54.2548 67.0439 54.6132 67.5002 54.6132C67.9563 54.6132 68.3147 54.2548 68.3147 53.7986L68.3147 48.3146L73.7986 48.3146C74.2549 48.3146 74.6133 47.9562 74.6133 47.5C74.6133 47.0438 74.2549 46.6854 73.7986 46.6854L68.3147 46.6854Z" fill="#B8B8B8" fill-opacity="1.000000" fill-rule="evenodd"/>
</svg>
