<svg width="100.000000" height="100.000000" viewBox="0 0 100 100" fill="none" xmlns="http://www.w3.org/2000/svg" xmlns:xlink="http://www.w3.org/1999/xlink">
	<desc>
			Created with Pixso.
	</desc>
	<defs/>
	<circle cx="50.000000" cy="50.000000" r="50.000000" fill="#FFFFFF" fill-opacity="1.000000"/>
	<circle cx="50.000000" cy="50.000000" r="48.000000" stroke="#8C74FF" stroke-opacity="1.000000" stroke-width="4.000000"/>
	<path d="M49.7349 25C43.5984 25 38.6238 29.9746 38.6238 36.1111C38.6238 42.2476 43.5984 47.2222 49.7349 47.2222C55.8716 47.2222 60.8462 42.2476 60.8462 36.1111C60.8462 29.9746 55.8716 25 49.7349 25ZM37.3508 54.383L37.5947 54.2869C39.0947 53.696 40.678 53.3438 42.2869 53.2433L49.7351 52.7778L60.229 53.3951L61.3354 53.6164C67.0999 54.7693 71.4404 59.5439 72.0403 65.3918C72.1885 66.8361 71.9734 68.2945 71.415 69.6347C70.0613 72.8837 66.8867 75 63.3672 75L35.998 75C33.3882 75 30.9424 73.7266 29.4458 71.5885C28.2097 69.8228 27.7388 67.633 28.1394 65.5152C29.0942 60.4687 32.5723 56.2654 37.3508 54.383Z" clip-rule="evenodd" fill="#8C74FF" fill-opacity="1.000000" fill-rule="evenodd"/>
</svg>
